STARTFONT 2.1
FONT HAN-GB2312
SIZE 14 72 72
FONTBOUNDINGBOX 6 14 0 0
STARTPROPERTIES 1
BITCOUNT 8
ENDPROPERTIES
CHARS 94
STARTCHAR  00A4
ENCODING  164
SWIDTH  1000 0
DWIDTH  6 0
BBX  6 9 0 3
BITMAP
000000000000
60E03080E010
60FFFFFFE010
00E0C0FF8000
00FF80FF8000
00F0A0FF8000
40FFFFFFC000
80F06080F020
001000001000
ENDCHAR
STARTCHAR  00A7
ENCODING  167
SWIDTH  1000 0
DWIDTH  6 0
BBX  5 12 1 -2
BITMAP
40E0FFC010
E0E080FF80
F0C0008040
80FFE06000
A0F0E0FF40
F0A010FF80
E0E080FF60
40F0FFE000
604080FF60
FFC030FF80
80FFFFF020
0020301000
ENDCHAR
STARTCHAR  00A8
ENCODING  168
SWIDTH  1000 0
DWIDTH  4 0
BBX  4 3 0 10
BITMAP
20102010
FF80FF80
40304030
ENDCHAR
STARTCHAR  00B0
ENCODING  176
SWIDTH  1000 0
DWIDTH  5 0
BBX  3 5 1 5
BITMAP
60F060
E080E0
F030E0
A0FFA0
004000
ENDCHAR
STARTCHAR  00B1
ENCODING  177
SWIDTH  1000 0
DWIDTH  7 0
BBX  5 5 1 2
BITMAP
0080FF0000
20A0FF2020
FFFFFFFFFF
40A0FF4040
0080FF0000
ENDCHAR
STARTCHAR  00B7
ENCODING  183
SWIDTH  1000 0
DWIDTH  3 0
BBX  2 3 1 4
BITMAP
2010
FF80
4030
ENDCHAR
STARTCHAR  00D7
ENCODING  215
SWIDTH  1000 0
DWIDTH  6 0
BBX  5 6 0 2
BITMAP
0000000010
30E02080C0
0080F0E030
0060F0E020
40E03080C0
0010000010
ENDCHAR
STARTCHAR  00E0
ENCODING  224
SWIDTH  1000 0
DWIDTH  6 0
BBX  6 13 0 0
BITMAP
002010000000
0060F0200000
000030200000
0060FFFF1000
0080FFFF3000
00A0E0FF6000
00E080FF8000
00FF60E0A000
20FF40C0E000
40FF30A0FF00
80FFFFFFFF20
A0E04060FF40
C0A00020FF80
ENDCHAR
STARTCHAR  00E1
ENCODING  225
SWIDTH  1000 0
DWIDTH  6 0
BBX  6 13 0 0
BITMAP
000000201000
000060E03000
000040200000
0060FFFF1000
0080FFFF3000
00A0E0FF6000
00E080FF8000
00FF60E0A000
20FF40C0E000
40FF30A0FF00
80FFFFFFFF20
A0E04060FF40
C0A00020FF80
ENDCHAR
STARTCHAR  00E8
ENCODING  232
SWIDTH  1000 0
DWIDTH  6 0
BBX  5 13 1 0
BITMAP
1020000000
40F0400000
0020400000
FFFFFFFF40
FFC0606010
FF80000000
FFA0201000
FFFFFFA000
FFA0403000
FF80000000
FF80000000
FFC0606010
FFFFFFFF40
ENDCHAR
STARTCHAR  00E9
ENCODING  233
SWIDTH  1000 0
DWIDTH  6 0
BBX  5 12 1 0
BITMAP
0010E08000
0040600000
FFFFFFFF40
FFC0606010
FF80000000
FFA0201000
FFFFFFA000
FFA0403000
FF80000000
FF80000000
FFC0606010
FFFFFFFF40
ENDCHAR
STARTCHAR  00EA
ENCODING  234
SWIDTH  1000 0
DWIDTH  6 0
BBX  5 12 1 0
BITMAP
30F0F04000
6060408000
FFFFFFFF40
FFC0606010
FF80000000
FFA0201000
FFFFFFA000
FFA0403000
FF80000000
FF80000000
FFC0606010
FFFFFFFF40
ENDCHAR
STARTCHAR  00EC
ENCODING  236
SWIDTH  1000 0
DWIDTH  3 0
BBX  4 13 -1 0
BITMAP
00201000
0080E010
00004020
0000FF80
0000FF80
0000FF80
0000FF80
0000FF80
0000FF80
0000FF80
0000FF80
0000FF80
0000FF80
ENDCHAR
STARTCHAR  00ED
ENCODING  237
SWIDTH  1000 0
DWIDTH  3 0
BBX  3 13 1 0
BITMAP
002010
60E020
401000
FF8000
FF8000
FF8000
FF8000
FF8000
FF8000
FF8000
FF8000
FF8000
FF8000
ENDCHAR
STARTCHAR  00F2
ENCODING  242
SWIDTH  1000 0
DWIDTH  6 0
BBX  5 13 1 0
BITMAP
1020000000
20E0800000
0010400000
40E0FFA010
E0E080FF60
FF8000FF80
FF8000FF80
FF8000FF80
FF8000FF80
FF8000FF80
FF8000FF80
E0E080FF60
40E0FFA010
ENDCHAR
STARTCHAR  00F3
ENCODING  243
SWIDTH  1000 0
DWIDTH  6 0
BBX  5 13 1 0
BITMAP
0000102000
0010E06000
0010400000
40E0FFA010
E0E080FF60
FF8000FF80
FF8000FF80
FF8000FF80
FF8000FF80
FF8000FF80
FF8000FF80
E0E080FF60
40E0FFA010
ENDCHAR
STARTCHAR  00F7
ENCODING  247
SWIDTH  1000 0
DWIDTH  7 0
BBX  5 7 1 1
BITMAP
0010200000
0080FF0000
2040602020
FFFFFFFFFF
4060604040
0080FF0000
0030400000
ENDCHAR
STARTCHAR  00F9
ENCODING  249
SWIDTH  1000 0
DWIDTH  6 0
BBX  5 13 1 0
BITMAP
1020000000
20E0600000
0010400000
FF8000FF80
FF8000FF80
FF8000FF80
FF8000FF80
FF8000FF80
FF8000FF80
FF8000FF80
FF8000FF80
E0E080FF60
40E0FFA010
ENDCHAR
STARTCHAR  00FA
ENCODING  250
SWIDTH  1000 0
DWIDTH  6 0
BBX  5 13 1 0
BITMAP
0000102000
0010E06000
0020300000
FF8000FF80
FF8000FF80
FF8000FF80
FF8000FF80
FF8000FF80
FF8000FF80
FF8000FF80
FF8000FF80
E0E080FF60
40E0FFA010
ENDCHAR
STARTCHAR  00FC
ENCODING  252
SWIDTH  1000 0
DWIDTH  6 0
BBX  5 13 1 0
BITMAP
1020102000
80FF80FF00
3040304000
FF8000FF80
FF8000FF80
FF8000FF80
FF8000FF80
FF8000FF80
FF8000FF80
FF8000FF80
FF8000FF80
E0E080FF60
40E0FFA010
ENDCHAR
STARTCHAR  0401
ENCODING  1025
SWIDTH  1000 0
DWIDTH  6 0
BBX  5 13 1 0
BITMAP
2010102000
FF8080FF00
4030304000
FFFFFFFF40
FFC0606020
FF80000000
FFA0201000
FFFFFFC000
FFA0403000
FF80000000
FF80000000
FFC0606020
FFFFFFFF40
ENDCHAR
STARTCHAR  0410
ENCODING  1040
SWIDTH  1000 0
DWIDTH  6 0
BBX  6 10 0 0
BITMAP
0060FFFF1000
0080FFFF3000
00C0E0FF6000
00E080FF8000
00FF60E0A000
30FF40C0E000
60FF20A0FF00
80FFFFFFFF20
A0E04080FF40
E0A00020FF80
ENDCHAR
STARTCHAR  0411
ENCODING  1041
SWIDTH  1000 0
DWIDTH  6 0
BBX  5 10 1 0
BITMAP
FFFFFFFF10
FFC0606000
FF80000000
FFA0100000
FFFFFFE010
FFA060FF80
FF8000FF80
FF8000FF80
FFC080FF60
FFFFFFC010
ENDCHAR
STARTCHAR  0412
ENCODING  1042
SWIDTH  1000 0
DWIDTH  6 0
BBX  5 10 1 0
BITMAP
FFFFFFC010
FFC080FF80
FF8000FF80
FFA040FF60
FFFFFFE000
FFA080FF60
FF8000FF80
FF8000FF80
FFC080FF60
FFFFFFC010
ENDCHAR
STARTCHAR  0413
ENCODING  1043
SWIDTH  1000 0
DWIDTH  5 0
BBX  5 10 1 0
BITMAP
FFFFFFFF20
FFC0606010
FF80000000
FF80000000
FF80000000
FF80000000
FF80000000
FF80000000
FF80000000
FF80000000
ENDCHAR
STARTCHAR  0414
ENCODING  1044
SWIDTH  1000 0
DWIDTH  8 0
BBX  7 12 0 -2
BITMAP
0080FFFFFFFF80
0080FF6060FF80
0080FF0000FF80
0080FF0000FF80
0080FF0000FF80
0080FF0000FF80
0080FF0000FF80
0080FF0000FF80
60E0F06060FFC0
FFFFFFFFFFFFFF
FF8000000080FF
80400000004080
ENDCHAR
STARTCHAR  0415
ENCODING  1045
SWIDTH  1000 0
DWIDTH  6 0
BBX  5 10 1 0
BITMAP
FFFFFFFF40
FFC0606010
FF80000000
FFA0201000
FFFFFFA000
FFA0403000
FF80000000
FF80000000
FFC0606010
FFFFFFFF40
ENDCHAR
STARTCHAR  0416
ENCODING  1046
SWIDTH  1000 0
DWIDTH  9 0
BBX  10 10 0 0
BITMAP
40FF3000FF8000A0E000
00E0A000FF8020FF6000
0060FF20FF80A0E00000
0000E0A0FFA0FF600000
000080FFFFFFFF100000
0000E0FFFFFFFF600000
0030FFA0FFC0E0C00000
00A0F010FF8060FF2000
10F0A000FF8010FF8000
60FF4000FF8000A0E000
ENDCHAR
STARTCHAR  0417
ENCODING  1047
SWIDTH  1000 0
DWIDTH  6 0
BBX  5 10 1 0
BITMAP
40E0FFC010
E0E080FF60
FF8000FF80
402040FF60
0020FFE000
001080FF60
E08000FF80
FF8000FF80
E0E080FF60
40E0FFA000
ENDCHAR
STARTCHAR  0418
ENCODING  1048
SWIDTH  1000 0
DWIDTH  7 0
BBX  5 10 1 0
BITMAP
FF8020FFFF
FF8060FFFF
FF80A0FFFF
FF80E0E0FF
FFA0FFA0FF
FFE0E080FF
FFFFA080FF
FFFF6080FF
FFFF1080FF
FFE00080FF
ENDCHAR
STARTCHAR  0419
ENCODING  1049
SWIDTH  1000 0
DWIDTH  7 0
BBX  5 13 1 0
BITMAP
0020202000
00FFFFFF00
0040404000
FF8020FFFF
FF8060FFFF
FF80A0FFFF
FF80E0E0FF
FFA0FFA0FF
FFE0E080FF
FFFFA080FF
FFFF6080FF
FFFF1080FF
FFE00080FF
ENDCHAR
STARTCHAR  041A
ENCODING  1050
SWIDTH  1000 0
DWIDTH  6 0
BBX  6 10 1 0
BITMAP
FF8000A0E000
FF8020FF6000
FF80A0E00000
FFA0F0600000
FFFFFF100000
FFFFFF600000
FFC0E0C00000
FF8060FF2000
FF8010FF8000
FF8000A0E000
ENDCHAR
STARTCHAR  041B
ENCODING  1051
SWIDTH  1000 0
DWIDTH  8 0
BBX  7 10 0 0
BITMAP
0000FFFFFFFFFF
0000FFC060C0FF
0000FF800080FF
0000FF800080FF
0000FF800080FF
0000FF800080FF
0000FF800080FF
0000FF800080FF
3080FF600080FF
60FFC0100080FF
ENDCHAR
STARTCHAR  041C
ENCODING  1052
SWIDTH  1000 0
DWIDTH  8 0
BBX  7 10 1 0
BITMAP
FFFF6000C0FF80
FFFF8000E0FF80
FFFFA000FFFF80
FFF0E020E0FF80
FFC0F040C0FF80
FFA0FF80A0FF80
FF80F0E080FF80
FF80C0FF60FF80
FF80A0FF30FF80
FF8080FF10FF80
ENDCHAR
STARTCHAR  041D
ENCODING  1053
SWIDTH  1000 0
DWIDTH  7 0
BBX  5 10 1 0
BITMAP
FF800080FF
FF800080FF
FF800080FF
FFA020A0FF
FFFFFFFFFF
FFA040A0FF
FF800080FF
FF800080FF
FF800080FF
FF800080FF
ENDCHAR
STARTCHAR  041E
ENCODING  1054
SWIDTH  1000 0
DWIDTH  6 0
BBX  5 10 1 0
BITMAP
40E0FFA010
E0E080FF60
FF8000FF80
FF8000FF80
FF8000FF80
FF8000FF80
FF8000FF80
FF8000FF80
E0E080FF60
40E0FFA010
ENDCHAR
STARTCHAR  041F
ENCODING  1055
SWIDTH  1000 0
DWIDTH  7 0
BBX  5 10 1 0
BITMAP
FFFFFFFFFF
FFC060C0FF
FF800080FF
FF800080FF
FF800080FF
FF800080FF
FF800080FF
FF800080FF
FF800080FF
FF800080FF
ENDCHAR
STARTCHAR  0420
ENCODING  1056
SWIDTH  1000 0
DWIDTH  6 0
BBX  5 10 1 0
BITMAP
FFFFFFA010
FFC080FF60
FF8000FF80
FF8000FF80
FFA040FF80
FFFFFFF020
FFA0401000
FF80000000
FF80000000
FF80000000
ENDCHAR
STARTCHAR  0421
ENCODING  1057
SWIDTH  1000 0
DWIDTH  6 0
BBX  5 10 1 0
BITMAP
40E0FFA010
E0E080FF60
FF8000FF80
FF80006040
FF80000000
FF80000000
FF8000C060
FF8000FF80
E0E080FF60
40E0FFC010
ENDCHAR
STARTCHAR  0422
ENCODING  1058
SWIDTH  1000 0
DWIDTH  7 0
BBX  5 10 1 0
BITMAP
FFFFFFFFFF
60C0FF6060
0080FF0000
0080FF0000
0080FF0000
0080FF0000
0080FF0000
0080FF0000
0080FF0000
0080FF0000
ENDCHAR
STARTCHAR  0423
ENCODING  1059
SWIDTH  1000 0
DWIDTH  7 0
BBX  7 10 0 0
BITMAP
C0E0000030FF40
60FF300080FF10
10FF8000C0C000
00C0E000F08000
0080FF40FF3000
0020FFE0E00000
0000E0FFA00000
000080FF600000
0080E0F0100000
00FFF060000000
ENDCHAR
STARTCHAR  0424
ENCODING  1060
SWIDTH  1000 0
DWIDTH  9 0
BBX  8 10 1 0
BITMAP
001020FFA0100000
60F0FFFFFFFFE010
E0E040FFA060FF80
FF8000FF8000FF80
FF8000FF8000FF80
FF8000FF8000FF80
F0C020FFA040FF80
80FFFFFFFFFFF020
003040FFA0401000
000000FF80000000
ENDCHAR
STARTCHAR  0425
ENCODING  1061
SWIDTH  1000 0
DWIDTH  6 0
BBX  6 10 0 0
BITMAP
80FF1000E080
30FF6040FF30
00E0C080E000
0080F0E08000
0030FFFF3000
0040FFFF4000
00A0E0F0A000
00F080A0F000
40FF2040FF40
A0E00000F0A0
ENDCHAR
STARTCHAR  0426
ENCODING  1062
SWIDTH  1000 0
DWIDTH  7 0
BBX  6 12 1 -2
BITMAP
FF800080FF00
FF800080FF00
FF800080FF00
FF800080FF00
FF800080FF00
FF800080FF00
FF800080FF00
FF800080FF00
FFC060C0FF40
FFFFFFFFFF80
00000000FF80
000000002010
ENDCHAR
STARTCHAR  0427
ENCODING  1063
SWIDTH  1000 0
DWIDTH  6 0
BBX  5 10 1 0
BITMAP
FF8000FF80
FF8000FF80
FF8000FF80
FF8000FF80
F0C040FF80
80FFFFFF80
003040FF80
000000FF80
000000FF80
000000FF80
ENDCHAR
STARTCHAR  0428
ENCODING  1064
SWIDTH  1000 0
DWIDTH  9 0
BBX  8 10 1 0
BITMAP
FF8000FF8000FF80
FF8000FF8000FF80
FF8000FF8000FF80
FF8000FF8000FF80
FF8000FF8000FF80
FF8000FF8000FF80
FF8000FF8000FF80
FF8000FF8000FF80
FFC060FFC060FF80
FFFFFFFFFFFFFF80
ENDCHAR
STARTCHAR  0429
ENCODING  1065
SWIDTH  1000 0
DWIDTH  9 0
BBX  8 12 1 -2
BITMAP
FF8000FF8080FF00
FF8000FF8080FF00
FF8000FF8080FF00
FF8000FF8080FF00
FF8000FF8080FF00
FF8000FF8080FF00
FF8000FF8080FF00
FF8000FF8080FF00
FFC060FFC0C0FF60
FFFFFFFFFFFFFFFF
00000000000080FF
0000000000001020
ENDCHAR
STARTCHAR  042A
ENCODING  1066
SWIDTH  1000 0
DWIDTH  6 0
BBX  7 10 -1 0
BITMAP
40FFFF80000000
2060FF80000000
0000FF80000000
0000FFA0100000
0000FFFFFFE010
0000FFA060FF80
0000FF8000FF80
0000FF8000FF80
0000FFC080FF60
0000FFFFFFC010
ENDCHAR
STARTCHAR  042B
ENCODING  1067
SWIDTH  1000 0
DWIDTH  9 0
BBX  7 10 1 0
BITMAP
FF8000000080FF
FF8000000080FF
FF8000000080FF
FFA010000080FF
FFFFFFE01080FF
FFA060FF8080FF
FF8000FF8080FF
FF8000FF8080FF
FFC080FF6080FF
FFFFFFC01080FF
ENDCHAR
STARTCHAR  042C
ENCODING  1068
SWIDTH  1000 0
DWIDTH  6 0
BBX  5 10 1 0
BITMAP
FF80000000
FF80000000
FF80000000
FFA0100000
FFFFFFE010
FFA060FF80
FF8000FF80
FF8000FF80
FFC080FF60
FFFFFFC010
ENDCHAR
STARTCHAR  042D
ENCODING  1069
SWIDTH  1000 0
DWIDTH  6 0
BBX  5 10 1 0
BITMAP
60E0FFA010
E0E080FF60
FF8000FF80
303020FF80
00FFFFFF80
004040FF80
FF8000FF80
FF8000FF80
E0E080FF60
40E0FFC010
ENDCHAR
STARTCHAR  042E
ENCODING  1070
SWIDTH  1000 0
DWIDTH  9 0
BBX  7 10 1 0
BITMAP
FF8010C0FFE040
FF8080FF80E0E0
FF8080FF0080FF
FFA0A0FF0080FF
FFFFFFFF0080FF
FFA0A0FF0080FF
FF8080FF0080FF
FF8080FF0080FF
FF8060FF80E0E0
FF8000A0FFE040
ENDCHAR
STARTCHAR  042F
ENCODING  1071
SWIDTH  1000 0
DWIDTH  6 0
BBX  6 10 0 0
BITMAP
0060E0FFFF80
00E0E060FF80
00FF8000FF80
00FF8000FF80
00E0C020FF80
0060FFFFFF80
00E0E060FF80
00FF8000FF80
00FF8000FF80
10FF8000FF80
ENDCHAR
STARTCHAR  0430
ENCODING  1072
SWIDTH  1000 0
DWIDTH  6 0
BBX  6 10 0 0
BITMAP
0060FFFF1000
0080FFFF3000
00C0E0FF6000
00E080FF8000
00FF60E0A000
30FF40C0E000
60FF20A0FF00
80FFFFFFFF20
A0E04080FF40
E0A00020FF80
ENDCHAR
STARTCHAR  0431
ENCODING  1073
SWIDTH  1000 0
DWIDTH  6 0
BBX  5 10 1 0
BITMAP
FFFFFFFF10
FFC0606000
FF80000000
FFA0100000
FFFFFFE010
FFA060FF80
FF8000FF80
FF8000FF80
FFC080FF60
FFFFFFC010
ENDCHAR
STARTCHAR  0432
ENCODING  1074
SWIDTH  1000 0
DWIDTH  6 0
BBX  5 10 1 0
BITMAP
FFFFFFC010
FFC080FF80
FF8000FF80
FFA040FF60
FFFFFFE000
FFA080FF60
FF8000FF80
FF8000FF80
FFC080FF60
FFFFFFC010
ENDCHAR
STARTCHAR  0433
ENCODING  1075
SWIDTH  1000 0
DWIDTH  5 0
BBX  5 10 1 0
BITMAP
FFFFFFFF20
FFC0606010
FF80000000
FF80000000
FF80000000
FF80000000
FF80000000
FF80000000
FF80000000
FF80000000
ENDCHAR
STARTCHAR  0434
ENCODING  1076
SWIDTH  1000 0
DWIDTH  8 0
BBX  7 12 0 -2
BITMAP
0080FFFFFFFF80
0080FF6060FF80
0080FF0000FF80
0080FF0000FF80
0080FF0000FF80
0080FF0000FF80
0080FF0000FF80
0080FF0000FF80
60E0F06060FFC0
FFFFFFFFFFFFFF
FF8000000080FF
80400000004080
ENDCHAR
STARTCHAR  0435
ENCODING  1077
SWIDTH  1000 0
DWIDTH  6 0
BBX  5 10 1 0
BITMAP
FFFFFFFF40
FFC0606010
FF80000000
FFA0201000
FFFFFFA000
FFA0403000
FF80000000
FF80000000
FFC0606010
FFFFFFFF40
ENDCHAR
STARTCHAR  0436
ENCODING  1078
SWIDTH  1000 0
DWIDTH  9 0
BBX  10 10 0 0
BITMAP
40FF3000FF8000A0E000
00E0A000FF8020FF6000
0060FF20FF80A0E00000
0000E0A0FFA0FF600000
000080FFFFFFFF100000
0000E0FFFFFFFF600000
0030FFA0FFC0E0C00000
00A0F010FF8060FF2000
10F0A000FF8010FF8000
60FF4000FF8000A0E000
ENDCHAR
STARTCHAR  0437
ENCODING  1079
SWIDTH  1000 0
DWIDTH  6 0
BBX  5 10 1 0
BITMAP
40E0FFC010
E0E080FF60
FF8000FF80
402040FF60
0020FFE000
001080FF60
E08000FF80
FF8000FF80
E0E080FF60
40E0FFA000
ENDCHAR
STARTCHAR  0438
ENCODING  1080
SWIDTH  1000 0
DWIDTH  7 0
BBX  5 10 1 0
BITMAP
FF8020FFFF
FF8060FFFF
FF80A0FFFF
FF80E0E0FF
FFA0FFA0FF
FFE0E080FF
FFFFA080FF
FFFF6080FF
FFFF1080FF
FFE00080FF
ENDCHAR
STARTCHAR  0439
ENCODING  1081
SWIDTH  1000 0
DWIDTH  7 0
BBX  5 13 1 0
BITMAP
0020202000
00FFFFFF00
0040404000
FF8020FFFF
FF8060FFFF
FF80A0FFFF
FF80E0E0FF
FFA0FFA0FF
FFE0E080FF
FFFFA080FF
FFFF6080FF
FFFF1080FF
FFE00080FF
ENDCHAR
STARTCHAR  043A
ENCODING  1082
SWIDTH  1000 0
DWIDTH  6 0
BBX  6 10 1 0
BITMAP
FF8000A0E000
FF8020FF6000
FF80A0E00000
FFA0F0600000
FFFFFF100000
FFFFFF600000
FFC0E0C00000
FF8060FF2000
FF8010FF8000
FF8000A0E000
ENDCHAR
STARTCHAR  043B
ENCODING  1083
SWIDTH  1000 0
DWIDTH  8 0
BBX  7 10 0 0
BITMAP
0000FFFFFFFFFF
0000FFC060C0FF
0000FF800080FF
0000FF800080FF
0000FF800080FF
0000FF800080FF
0000FF800080FF
0000FF800080FF
3080FF600080FF
60FFC0100080FF
ENDCHAR
STARTCHAR  043C
ENCODING  1084
SWIDTH  1000 0
DWIDTH  8 0
BBX  7 10 1 0
BITMAP
FFFF6000C0FF80
FFFF8000E0FF80
FFFFA000FFFF80
FFF0E020E0FF80
FFC0F040C0FF80
FFA0FF80A0FF80
FF80F0E080FF80
FF80C0FF60FF80
FF80A0FF30FF80
FF8080FF10FF80
ENDCHAR
STARTCHAR  043D
ENCODING  1085
SWIDTH  1000 0
DWIDTH  7 0
BBX  5 10 1 0
BITMAP
FF800080FF
FF800080FF
FF800080FF
FFA020A0FF
FFFFFFFFFF
FFA040A0FF
FF800080FF
FF800080FF
FF800080FF
FF800080FF
ENDCHAR
STARTCHAR  043E
ENCODING  1086
SWIDTH  1000 0
DWIDTH  6 0
BBX  5 10 1 0
BITMAP
40E0FFA010
E0E080FF60
FF8000FF80
FF8000FF80
FF8000FF80
FF8000FF80
FF8000FF80
FF8000FF80
E0E080FF60
40E0FFA010
ENDCHAR
STARTCHAR  043F
ENCODING  1087
SWIDTH  1000 0
DWIDTH  7 0
BBX  5 10 1 0
BITMAP
FFFFFFFFFF
FFC060C0FF
FF800080FF
FF800080FF
FF800080FF
FF800080FF
FF800080FF
FF800080FF
FF800080FF
FF800080FF
ENDCHAR
STARTCHAR  0440
ENCODING  1088
SWIDTH  1000 0
DWIDTH  6 0
BBX  5 10 1 0
BITMAP
FFFFFFA010
FFC080FF60
FF8000FF80
FF8000FF80
FFA040FF80
FFFFFFF020
FFA0401000
FF80000000
FF80000000
FF80000000
ENDCHAR
STARTCHAR  0441
ENCODING  1089
SWIDTH  1000 0
DWIDTH  6 0
BBX  5 10 1 0
BITMAP
40E0FFA010
E0E080FF60
FF8000FF80
FF80006040
FF80000000
FF80000000
FF8000C060
FF8000FF80
E0E080FF60
40E0FFC010
ENDCHAR
STARTCHAR  0442
ENCODING  1090
SWIDTH  1000 0
DWIDTH  7 0
BBX  5 10 1 0
BITMAP
FFFFFFFFFF
60C0FF6060
0080FF0000
0080FF0000
0080FF0000
0080FF0000
0080FF0000
0080FF0000
0080FF0000
0080FF0000
ENDCHAR
STARTCHAR  0443
ENCODING  1091
SWIDTH  1000 0
DWIDTH  7 0
BBX  7 10 0 0
BITMAP
C0E0000030FF40
60FF300080FF10
10FF8000C0C000
00C0E000F08000
0080FF40FF3000
0020FFE0E00000
0000E0FFA00000
000080FF600000
0080E0F0100000
00FFF060000000
ENDCHAR
STARTCHAR  0444
ENCODING  1092
SWIDTH  1000 0
DWIDTH  9 0
BBX  8 10 1 0
BITMAP
001020FFA0100000
60F0FFFFFFFFE010
E0E040FFA060FF80
FF8000FF8000FF80
FF8000FF8000FF80
FF8000FF8000FF80
F0C020FFA040FF80
80FFFFFFFFFFF020
003040FFA0401000
000000FF80000000
ENDCHAR
STARTCHAR  0445
ENCODING  1093
SWIDTH  1000 0
DWIDTH  6 0
BBX  6 10 0 0
BITMAP
80FF1000E080
30FF6040FF30
00E0C080E000
0080F0E08000
0030FFFF3000
0040FFFF4000
00A0E0F0A000
00F080A0F000
40FF2040FF40
A0E00000F0A0
ENDCHAR
STARTCHAR  0446
ENCODING  1094
SWIDTH  1000 0
DWIDTH  7 0
BBX  6 12 1 -2
BITMAP
FF800080FF00
FF800080FF00
FF800080FF00
FF800080FF00
FF800080FF00
FF800080FF00
FF800080FF00
FF800080FF00
FFC060C0FF40
FFFFFFFFFF80
00000000FF80
000000002010
ENDCHAR
STARTCHAR  0447
ENCODING  1095
SWIDTH  1000 0
DWIDTH  6 0
BBX  5 10 1 0
BITMAP
FF8000FF80
FF8000FF80
FF8000FF80
FF8000FF80
F0C040FF80
80FFFFFF80
003040FF80
000000FF80
000000FF80
000000FF80
ENDCHAR
STARTCHAR  0448
ENCODING  1096
SWIDTH  1000 0
DWIDTH  9 0
BBX  8 10 1 0
BITMAP
FF8000FF8000FF80
FF8000FF8000FF80
FF8000FF8000FF80
FF8000FF8000FF80
FF8000FF8000FF80
FF8000FF8000FF80
FF8000FF8000FF80
FF8000FF8000FF80
FFC060FFC060FF80
FFFFFFFFFFFFFF80
ENDCHAR
STARTCHAR  0449
ENCODING  1097
SWIDTH  1000 0
DWIDTH  9 0
BBX  8 12 1 -2
BITMAP
FF8000FF8080FF00
FF8000FF8080FF00
FF8000FF8080FF00
FF8000FF8080FF00
FF8000FF8080FF00
FF8000FF8080FF00
FF8000FF8080FF00
FF8000FF8080FF00
FFC060FFC0C0FF60
FFFFFFFFFFFFFFFF
00000000000080FF
0000000000001020
ENDCHAR
STARTCHAR  044A
ENCODING  1098
SWIDTH  1000 0
DWIDTH  6 0
BBX  7 10 -1 0
BITMAP
40FFFF80000000
2060FF80000000
0000FF80000000
0000FFA0100000
0000FFFFFFE010
0000FFA060FF80
0000FF8000FF80
0000FF8000FF80
0000FFC080FF60
0000FFFFFFC010
ENDCHAR
STARTCHAR  044B
ENCODING  1099
SWIDTH  1000 0
DWIDTH  9 0
BBX  7 10 1 0
BITMAP
FF8000000080FF
FF8000000080FF
FF8000000080FF
FFA010000080FF
FFFFFFE01080FF
FFA060FF8080FF
FF8000FF8080FF
FF8000FF8080FF
FFC080FF6080FF
FFFFFFC01080FF
ENDCHAR
STARTCHAR  044C
ENCODING  1100
SWIDTH  1000 0
DWIDTH  6 0
BBX  5 10 1 0
BITMAP
FF80000000
FF80000000
FF80000000
FFA0100000
FFFFFFE010
FFA060FF80
FF8000FF80
FF8000FF80
FFC080FF60
FFFFFFC010
ENDCHAR
STARTCHAR  044D
ENCODING  1101
SWIDTH  1000 0
DWIDTH  6 0
BBX  5 10 1 0
BITMAP
60E0FFA010
E0E080FF60
FF8000FF80
303020FF80
00FFFFFF80
004040FF80
FF8000FF80
FF8000FF80
E0E080FF60
40E0FFC010
ENDCHAR
STARTCHAR  044E
ENCODING  1102
SWIDTH  1000 0
DWIDTH  9 0
BBX  7 10 1 0
BITMAP
FF8010C0FFE040
FF8080FF80E0E0
FF8080FF0080FF
FFA0A0FF0080FF
FFFFFFFF0080FF
FFA0A0FF0080FF
FF8080FF0080FF
FF8080FF0080FF
FF8060FF80E0E0
FF8000A0FFE040
ENDCHAR
STARTCHAR  044F
ENCODING  1103
SWIDTH  1000 0
DWIDTH  6 0
BBX  6 10 0 0
BITMAP
0060E0FFFF80
00E0E060FF80
00FF8000FF80
00FF8000FF80
00E0C020FF80
0060FFFFFF80
00E0E060FF80
00FF8000FF80
00FF8000FF80
10FF8000FF80
ENDCHAR
STARTCHAR  0451
ENCODING  1105
SWIDTH  1000 0
DWIDTH  6 0
BBX  5 13 1 0
BITMAP
2010102000
FF8080FF00
4030304000
FFFFFFFF40
FFC0606020
FF80000000
FFA0201000
FFFFFFC000
FFA0403000
FF80000000
FF80000000
FFC0606020
FFFFFFFF40
ENDCHAR
STARTCHAR  2014
ENCODING  8212
SWIDTH  1000 0
DWIDTH  14 0
BBX  14 3 0 4
BITMAP
2020202020202020202020202020
FFFFFFFFFFFFFFFFFFFFFFFFFFFF
4040404040404040404040404040
ENDCHAR
STARTCHAR  2018
ENCODING  8216
SWIDTH  1000 0
DWIDTH  3 0
BBX  2 3 1 7
BITMAP
8040
E040
FF80
ENDCHAR
STARTCHAR  2019
ENCODING  8217
SWIDTH  1000 0
DWIDTH  3 0
BBX  2 3 1 7
BITMAP
FF80
C060
A010
ENDCHAR
STARTCHAR  201C
ENCODING  8220
SWIDTH  1000 0
DWIDTH  5 0
BBX  4 3 1 7
BITMAP
80408040
E040E040
FF80FF80
ENDCHAR
STARTCHAR  201D
ENCODING  8221
SWIDTH  1000 0
DWIDTH  5 0
BBX  4 3 1 7
BITMAP
FF80FF80
C060C060
A010A010
ENDCHAR
STARTCHAR  2026
ENCODING  8230
SWIDTH  1000 0
DWIDTH  7 0
BBX  6 2 1 0
BITMAP
604060406040
FF80FF80FF80
ENDCHAR
STARTCHAR  2030
ENCODING  8240
SWIDTH  1000 0
DWIDTH  13 0
BBX  12 10 1 0
BITMAP
A0F0A00000E0100000000000
FFFFFF0060A0000000000000
FFFFFF00C030000000000000
FFFFFF10C000000000000000
FFFFFF6080E0E08080E0E030
E0FFE0C080FFA0FFFFA0FF80
104040A080FF80FFFF80FF80
0000803080FF80FFFF80FF80
0000A00080FFC0FFFFC0FF80
0040600030E0F080A0F0E030
ENDCHAR
STARTCHAR  2116
ENCODING  8470
SWIDTH  1000 0
DWIDTH  10 0
BBX  10 10 0 0
BITMAP
40E08000FFFFFF600000
60FFE000FF8020100000
60FFFF10FF6000200000
60FFE040FF60A0FFC000
60FFA080FF60F040FF10
60FF60E0FF60FF10FF20
60FF20FFFF60F060FF10
60FF00E0FF6080FFA000
60FF00A0FF6020202010
60FF0060FF60FFFFFF60
ENDCHAR
ENDFONT
